<?xml version="1.0" encoding="UTF-8"?><svg id="Layer_1" xmlns="http://www.w3.org/2000/svg" xmlns:xlink="http://www.w3.org/1999/xlink" viewBox="0 0 604.18 301.27"><defs><style>.cls-1{fill:url(#linear-gradient);}.cls-1,.cls-2,.cls-3{stroke:#fff;stroke-miterlimit:10;stroke-width:2px;}.cls-2{fill:url(#linear-gradient-3);}.cls-3{fill:url(#linear-gradient-2);}</style><linearGradient id="linear-gradient" x1="76.78" y1="133.46" x2="433.32" y2="133.46" gradientUnits="userSpaceOnUse"><stop offset="0" stop-color="#d74976"/><stop offset=".17" stop-color="#d34875"/><stop offset=".32" stop-color="#c94672"/><stop offset=".45" stop-color="#b8426e"/><stop offset=".58" stop-color="#9f3d68"/><stop offset=".71" stop-color="#803660"/><stop offset=".83" stop-color="#592e57"/><stop offset=".94" stop-color="#2c254c"/><stop offset="1" stop-color="#142046"/></linearGradient><linearGradient id="linear-gradient-2" x1="622.32" y1="140.93" x2="139.4" y2="162.1" gradientUnits="userSpaceOnUse"><stop offset="0" stop-color="#d74976"/><stop offset="1" stop-color="#142046"/></linearGradient><linearGradient id="linear-gradient-3" x1="23.01" y1="131.45" x2="118.56" y2="131.45" xlink:href="#linear-gradient-2"/></defs><path class="cls-1" d="m436.99,62.33c0-24.04-19.59-43.53-43.74-43.53-8.73,0-16.85,2.55-23.68,6.94-6.83-4.38-14.95-6.94-23.68-6.94-12.65,0-24.04,5.35-32.03,13.89-7.99-8.54-19.38-13.89-32.03-13.89-16.79,0-31.37,9.42-38.7,23.23-7.33-13.81-21.91-23.23-38.7-23.23-17.96,0-33.38,10.77-40.12,26.18-6.74-15.4-22.16-26.18-40.12-26.18-24.16,0-43.74,19.49-43.74,43.53,0,6.67,1.51,12.99,4.21,18.64.28,1.57.72,3.09,1.31,4.52,6.55,25.18,18.01,48.24,33.28,68l-2.33,18.08-5.58,43.35-4.28,33.19,30.31-12.99,40.02-17.15,16.95-7.27c20.01,8.06,41.77,12.48,64.51,12.48,82.69,0,152.27-58.37,172.89-137.73.68-1.66,1.15-3.42,1.41-5.26,2.47-5.45,3.85-11.49,3.85-17.85Z"/><path class="cls-3" d="m589.38,24.91c-11.62-14.57-29.53-23.91-49.61-23.91-9.86,0-19.2,2.25-27.52,6.26-1.49.73-2.94,1.5-4.36,2.33-6.82,3.97-12.83,9.18-17.73,15.32h-14.58c.52,6.09.78,12.26.78,18.48,0,9.45-.6,18.76-1.77,27.9-13.69,107.48-105.49,190.58-216.7,190.58-33.1,0-64.49-7.36-92.6-20.54l-45.49,18.71c39.87,25.47,87.26,40.23,138.09,40.23,116.35,0,214.63-77.35,246.23-183.43,1.22.84,2.48,1.63,3.77,2.38,9.36,5.46,20.26,8.59,31.88,8.59,32.69,0,59.6-24.74,63.03-56.52.25-2.26.38-4.56.38-6.89,0-14.93-5.17-28.66-13.8-39.49Zm-50,83.98c-23.16,0-41.93-18.8-41.93-41.99,0-17.51,10.71-32.52,25.93-38.82,3.45-1.56,7.15-2.65,11.04-3.17,1.75-.24,3.54-.36,5.36-.36s3.61.12,5.36.36c8.51,1.15,16.17,4.98,22.1,10.61,8.63,7.69,14.08,18.9,14.08,31.38,0,23.19-18.77,41.99-41.93,41.99Z"/><path class="cls-2" d="m39.41,43.39c0-6.22.26-12.39.78-18.48H1.66c-.44,6.1-.66,12.27-.66,18.48,0,9.43.51,18.74,1.51,27.9,1.14,10.69,2.95,21.18,5.38,31.44,12.65,53.5,42.03,100.54,82.32,135.27l6.34-47.29c-29.58-32.38-49.54-73.69-55.37-119.42-1.17-9.14-1.77-18.45-1.77-27.9Z"/></svg>