<svg width="42" height="22" viewBox="0 0 42 22" fill="none" xmlns="http://www.w3.org/2000/svg">
<g id="LOGO">
<g id="Vector">
<path d="M30.6359 4.97992C30.6359 3.3893 29.3097 2.09973 27.6748 2.09973C27.0838 2.09973 26.5341 2.26845 26.0717 2.55892C25.6093 2.26912 25.0596 2.09973 24.4686 2.09973C23.6122 2.09973 22.8411 2.45372 22.3002 3.01877C21.7593 2.45372 20.9882 2.09973 20.1318 2.09973C18.9951 2.09973 18.0081 2.72301 17.5119 3.63676C17.0156 2.72301 16.0286 2.09973 14.8919 2.09973C13.6761 2.09973 12.6321 2.81233 12.1759 3.83194C11.7196 2.813 10.6757 2.09973 9.45979 2.09973C7.8242 2.09973 6.49866 3.3893 6.49866 4.97992C6.49866 5.42124 6.60088 5.83941 6.78367 6.21324C6.80262 6.31712 6.83241 6.41769 6.87235 6.51231C7.31578 8.17836 8.09161 9.70413 9.12536 11.0116L8.96762 12.2078L8.58987 15.0761L8.30012 17.2721L10.3521 16.4127L13.0614 15.2779L14.2088 14.7969C15.5635 15.3302 17.0366 15.6226 18.5761 15.6226C24.1741 15.6226 28.8845 11.7606 30.2805 6.50966C30.3265 6.39983 30.3583 6.28338 30.376 6.16163C30.5432 5.80103 30.6366 5.40139 30.6366 4.98058L30.6359 4.97992Z" fill="white"/>
<path d="M13.1 15.3701L14.2101 14.9048C15.5658 15.4332 17.0382 15.7226 18.5761 15.7226C24.2193 15.7226 28.9662 11.8311 30.3754 6.54188C30.4216 6.43024 30.454 6.31267 30.4727 6.19052C30.6421 5.82059 30.7366 5.41124 30.7366 4.98058V4.93847L30.7356 4.93751C30.7123 3.30869 29.3478 1.99973 27.6748 1.99973C27.0869 1.99973 26.5383 2.16142 26.0716 2.44161C25.6051 2.16206 25.0565 1.99973 24.4686 1.99973C23.6216 1.99973 22.8548 2.33512 22.3002 2.87667C21.7456 2.33512 20.9788 1.99973 20.1318 1.99973C19.0216 1.99973 18.0485 2.57561 17.5119 3.43805C16.9752 2.57561 16.0021 1.99973 14.8919 1.99973C13.7115 1.99973 12.6867 2.65025 12.1758 3.6051C11.6649 2.65081 10.6402 1.99973 9.45979 1.99973C7.77159 1.99973 6.39866 3.33148 6.39866 4.97992C6.39866 5.43203 6.50231 5.86084 6.68785 6.24485C6.7077 6.3485 6.73774 6.44921 6.77749 6.54466C7.221 8.2074 7.99303 9.73144 9.02071 11.0403L8.86848 12.1948L8.86848 12.1948L8.49073 15.063L8.49072 15.0631L8.20098 17.2591L8.17821 17.4316L8.33875 17.3644L10.3907 16.5049L13.1 15.3702L13.1 15.3701Z" stroke="#626689" stroke-opacity="0.5" stroke-width="0.2" stroke-miterlimit="10"/>
</g>
<g id="Vector_2">
<path d="M40.7642 2.59789C39.985 1.62419 38.7841 1 37.4376 1C36.7764 1 36.1501 1.15037 35.5922 1.41835C35.4922 1.46714 35.395 1.5186 35.2998 1.57406C34.8425 1.83938 34.4395 2.18756 34.1109 2.59789H33.1332C33.1681 3.00488 33.1855 3.41722 33.1855 3.83289C33.1855 4.46443 33.1453 5.08661 33.0668 5.69743C32.1488 12.8802 25.993 18.4338 18.5357 18.4338C16.3161 18.4338 14.2112 17.9419 12.3262 17.0611L9.27582 18.3115C11.9494 20.0136 15.1272 21 18.5357 21C26.3377 21 32.928 15.8308 35.047 8.7415C35.1288 8.79764 35.2133 8.85044 35.2998 8.90056C35.9274 9.26545 36.6584 9.47462 37.4376 9.47462C39.6296 9.47462 41.4341 7.82127 41.6641 5.69743C41.6809 5.5464 41.6896 5.39269 41.6896 5.23698C41.6896 4.23922 41.3429 3.32165 40.7642 2.59789ZM37.4114 8.21021C35.8584 8.21021 34.5997 6.95382 34.5997 5.40405C34.5997 4.23387 35.3179 3.23076 36.3385 2.80974C36.5698 2.70548 36.818 2.63264 37.0788 2.59789C37.1962 2.58185 37.3162 2.57383 37.4382 2.57383C37.5603 2.57383 37.6803 2.58185 37.7977 2.59789C38.3683 2.67474 38.882 2.9307 39.2796 3.30695C39.8583 3.82086 40.2238 4.57002 40.2238 5.40405C40.2238 6.95382 38.9651 8.21021 37.4121 8.21021H37.4114Z" fill="white"/>
<path d="M40.8423 2.53541L40.8423 2.53544C41.4347 3.27623 41.7896 4.21564 41.7896 5.23698C41.7896 5.39633 41.7807 5.55363 41.7635 5.7082C41.7635 5.70829 41.7635 5.70837 41.7635 5.70846L41.6641 5.69743C41.4341 7.82127 39.6296 9.47462 37.4376 9.47462C36.6584 9.47462 35.9274 9.26545 35.2998 8.90056L40.8423 2.53541ZM40.8423 2.53541C40.0449 1.53896 38.8156 0.9 37.4376 0.9C36.7611 0.9 36.12 1.05387 35.5489 1.32821L35.5483 1.32849C35.4465 1.37819 35.3471 1.43076 35.2496 1.48757M40.8423 2.53541L35.1038 8.89873C32.9316 15.9632 26.3357 21.1 18.5357 21.1C15.1076 21.1 11.9113 20.1079 9.22211 18.3958L9.05928 18.2921L9.23789 18.2189L12.2883 16.9686L12.3288 16.9519L12.3686 16.9705C14.2405 17.8452 16.331 18.3338 18.5357 18.3338C25.9423 18.3338 32.0559 12.818 32.9676 5.68475L32.9676 5.68469C33.0455 5.0781 33.0855 4.46018 33.0855 3.83289C33.0855 3.42001 33.0682 3.01052 33.0336 2.60642L33.0243 2.49789H33.1332H34.0632C34.3938 2.09424 34.7955 1.75101 35.2496 1.48757M35.2496 1.48757L35.2998 1.57406L35.2495 1.48766C35.2495 1.48763 35.2496 1.4876 35.2496 1.48757ZM36.3766 2.90218L36.3767 2.90223L36.3796 2.90091C36.6024 2.8005 36.8411 2.73044 37.092 2.69701L37.0923 2.69697C37.2051 2.68156 37.3206 2.67383 37.4382 2.67383C37.5559 2.67383 37.6714 2.68156 37.7841 2.69697L37.7843 2.69699C38.3335 2.77096 38.828 3.0173 39.2109 3.37959L39.2108 3.37962L39.2132 3.38172C39.7715 3.87753 40.1238 4.59989 40.1238 5.40405C40.1238 6.89841 38.9101 8.11021 37.4121 8.11021H37.4114C35.9134 8.11021 34.6997 6.89841 34.6997 5.40405C34.6997 4.27587 35.3921 3.30834 36.3766 2.90218Z" stroke="#626689" stroke-opacity="0.5" stroke-width="0.2" stroke-miterlimit="10"/>
</g>
<g id="Vector_3">
<path d="M3.4951 3.63527C3.4951 3.21253 3.51199 2.79318 3.54577 2.37927H1.04287C1.01429 2.79386 1 3.21321 1 3.63527C1 4.27619 1.03313 4.90895 1.09809 5.53151C1.17214 6.25806 1.28972 6.97102 1.44757 7.66834C2.26931 11.3045 4.17783 14.5016 6.79505 16.862L7.2069 13.6479C5.28539 11.4472 3.98879 8.63957 3.61008 5.53151C3.53408 4.91031 3.4951 4.27755 3.4951 3.63527Z" fill="white"/>
<path d="M3.64544 2.38741L3.65426 2.27927H3.54577H1.04287H0.94953L0.94311 2.37239C0.914367 2.78931 0.9 3.21096 0.9 3.63527C0.9 4.2796 0.933304 4.91578 0.998617 5.54177C1.07308 6.27233 1.19131 6.98922 1.35003 7.69039C2.17633 11.3467 4.09553 14.562 6.72808 16.9363L6.86996 17.0642L6.89424 16.8747L7.30609 13.6607L7.3118 13.616L7.28222 13.5822C5.37374 11.3964 4.08561 8.60736 3.70935 5.51941L3.70934 5.51937C3.63383 4.9022 3.5951 4.2735 3.5951 3.63527C3.5951 3.21519 3.61188 2.79856 3.64544 2.38741Z" stroke="#626689" stroke-opacity="0.5" stroke-width="0.2" stroke-miterlimit="10"/>
</g>
</g>
</svg>
